<?xml version="1.0" standalone="no"?>
<!DOCTYPE svg PUBLIC "-//W3C//DTD SVG 20010904//EN"
 "http://www.w3.org/TR/2001/REC-SVG-20010904/DTD/svg10.dtd">
<svg version="1.0" xmlns="http://www.w3.org/2000/svg"
 width="487.000000pt" height="487.000000pt" viewBox="0 0 487.000000 487.000000"
 preserveAspectRatio="xMidYMid meet">
<metadata>
Created by potrace 1.14, written by Peter Selinger 2001-2017
</metadata>
<g transform="translate(0.000000,487.000000) scale(0.100000,-0.100000)"
fill="#000000" stroke="none">
<path d="M864 4674 c-120 -70 -235 -135 -254 -146 -19 -11 -49 -28 -66 -38
-17 -10 -107 -61 -200 -114 -93 -53 -177 -106 -186 -118 -17 -19 -18 -108 -18
-1560 0 -991 4 -1546 10 -1558 9 -17 35 -34 160 -103 30 -16 67 -38 82 -49 14
-10 29 -18 32 -18 3 0 43 -22 88 -49 176 -103 398 -231 402 -231 2 0 41 -22
86 -50 45 -27 83 -50 84 -50 2 0 144 -82 317 -181 173 -100 334 -193 359 -207
25 -14 83 -47 130 -74 46 -26 91 -48 100 -48 9 0 171 89 361 197 1098 630
1443 830 1465 850 l24 22 0 499 0 498 302 175 c167 96 312 179 323 185 119 65
224 130 243 150 l22 25 0 519 c0 528 -2 554 -38 577 -20 12 -187 108 -252 145
-25 14 -173 99 -330 189 -358 206 -333 193 -363 183 -13 -5 -227 -126 -475
-268 -283 -164 -454 -267 -459 -280 -5 -12 -9 -242 -9 -513 l1 -491 -35 -19
c-19 -10 -62 -34 -95 -54 -33 -20 -80 -47 -105 -60 -25 -14 -76 -43 -115 -66
-129 -76 -384 -223 -387 -223 -2 0 -3 432 -3 959 0 934 -1 960 -20 981 -10 12
-78 55 -150 96 -71 41 -137 79 -145 84 -54 31 -140 81 -170 97 -19 11 -130 75
-246 142 -116 66 -220 121 -231 121 -11 0 -118 -57 -239 -126z m396 -123 c74
-44 230 -133 345 -199 116 -67 216 -125 223 -129 11 -7 -247 -161 -678 -405
l-48 -28 -362 209 c-199 114 -361 212 -360 217 1 7 150 97 358 215 114 65 178
102 262 152 52 31 102 54 110 51 8 -3 76 -40 150 -83z m2723 -537 c48 -29 97
-56 107 -59 11 -4 20 -11 20 -16 0 -5 4 -9 10 -9 19 0 380 -214 373 -221 -7
-7 -107 -65 -228 -134 -22 -12 -143 -82 -269 -155 -174 -101 -233 -130 -245
-123 -9 5 -175 101 -369 212 -194 112 -352 205 -350 206 3 3 244 142 305 176
21 12 67 38 103 59 36 21 81 47 100 58 19 10 78 44 130 75 l95 55 65 -36 c36
-20 105 -60 153 -88z m-3646 45 c21 -12 83 -47 138 -79 55 -32 116 -66 135
-77 19 -11 107 -62 195 -113 88 -51 174 -100 190 -110 l30 -17 2 -1001 c1
-618 5 -1008 11 -1019 9 -16 121 -82 691 -403 l186 -105 0 -418 c0 -231 -3
-421 -7 -423 -4 -3 -24 6 -45 20 -21 13 -240 140 -488 282 -247 141 -535 307
-640 367 -240 139 -273 158 -367 210 l-78 42 0 1433 c0 787 2 1432 5 1432 2 0
21 -10 42 -21z m1578 -907 l0 -921 -80 -46 c-140 -79 -165 -94 -402 -231 -127
-73 -237 -135 -244 -136 -10 -2 -13 185 -13 920 l-1 923 149 86 c82 47 163 93
180 103 180 102 346 199 366 213 13 9 29 16 35 14 7 -3 10 -309 10 -925z
m1224 326 c97 -55 244 -141 328 -190 84 -48 168 -96 188 -105 l35 -17 0 -423
0 -424 -23 13 c-13 7 -179 103 -370 213 l-346 199 1 418 c0 230 2 418 5 418 3
0 85 -46 182 -102z m1441 -316 l0 -419 -362 -208 c-200 -114 -366 -210 -371
-212 -4 -2 -6 186 -5 418 l3 421 130 75 c72 42 146 84 165 95 19 11 64 37 100
58 36 21 85 49 110 63 25 14 83 48 130 75 47 28 88 51 93 51 4 1 7 -187 7
-417z m-1509 -658 c101 -59 209 -121 239 -138 163 -91 300 -172 300 -176 0 -4
-521 -303 -1372 -786 l-248 -142 -365 207 c-201 113 -365 208 -365 211 0 4
133 82 300 176 30 17 174 100 320 184 146 84 285 165 310 179 65 37 542 311
560 321 8 5 38 23 65 39 28 17 55 31 61 31 7 0 94 -48 195 -106z m615 -1280
c-3 -7 -44 -34 -93 -62 -48 -27 -207 -118 -353 -202 -146 -84 -312 -180 -370
-213 -128 -73 -100 -57 -465 -267 -165 -95 -305 -177 -312 -182 -7 -5 -16 -7
-20 -5 -5 3 -8 193 -8 423 l0 418 390 224 c215 123 396 226 402 229 7 3 196
110 420 238 l408 233 3 -411 c1 -227 0 -417 -2 -423z"/>
</g>
</svg>
